<?xml version="1.0" standalone="no"?>
<!DOCTYPE svg PUBLIC "-//W3C//DTD SVG 20010904//EN"
 "http://www.w3.org/TR/2001/REC-SVG-20010904/DTD/svg10.dtd">
<svg version="1.0" xmlns="http://www.w3.org/2000/svg"
 width="214.000000pt" height="362.000000pt" viewBox="0 0 214.000000 362.000000"
 preserveAspectRatio="xMidYMid meet">
<metadata>
Created by potrace 1.16, written by Peter Selinger 2001-2019
</metadata>
<g transform="translate(0.000000,362.000000) scale(0.100000,-0.100000)"
fill="#000000" stroke="none">
<path d="M1080 3255 c0 -51 3 -65 15 -65 12 0 15 14 15 65 0 51 -3 65 -15 65
-12 0 -15 -14 -15 -65z"/>
<path d="M443 3193 c14 -4 17 -16 17 -63 0 -47 -3 -59 -17 -63 -10 -3 5 -5 32
-5 28 0 42 2 33 5 -22 6 -25 53 -3 53 8 0 15 -4 15 -10 0 -5 5 -10 10 -10 6 0
10 14 10 30 0 17 -4 30 -10 30 -5 0 -10 -4 -10 -10 0 -5 -7 -10 -15 -10 -9 0
-15 10 -15 26 0 24 3 25 28 19 15 -3 31 -13 35 -21 13 -23 25 -16 19 11 -4 24
-7 25 -76 24 -39 -1 -63 -3 -53 -6z"/>
<path d="M641 3098 c-1 -21 -7 -28 -28 -31 l-28 -4 27 -2 c21 -1 28 -7 31 -28
l4 -28 2 27 c1 21 7 28 29 31 l27 4 -27 2 c-21 1 -28 7 -31 29 l-4 27 -2 -27z"/>
<path d="M782 3031 c-17 -127 -16 -131 13 -91 l24 33 9 -24 c5 -13 49 -144 97
-290 l89 -265 -41 -41 c-23 -23 -44 -55 -48 -72 l-7 -31 -140 0 -139 0 20 26
c12 15 21 31 21 35 0 5 -40 -11 -90 -36 -49 -25 -90 -47 -90 -50 0 -3 41 -25
90 -50 50 -25 90 -41 90 -36 0 4 -9 20 -21 35 l-20 26 139 0 140 0 7 -31 c4
-17 25 -49 48 -72 l41 -41 -89 -265 c-48 -146 -92 -277 -97 -290 l-9 -24 -24
33 c-23 31 -25 32 -25 11 0 -12 5 -54 11 -92 9 -57 8 -78 -5 -115 -14 -42 -14
-45 1 -42 9 2 21 17 26 33 5 17 39 60 75 97 36 37 63 70 59 74 -3 3 -20 2 -36
-4 -17 -6 -31 -8 -31 -4 0 22 193 582 201 582 5 0 9 -25 9 -55 0 -42 3 -55 15
-55 11 0 15 13 15 54 0 52 1 54 32 60 74 15 128 87 128 171 0 97 -61 165 -155
173 l-54 4 -96 287 c-52 157 -95 289 -95 293 0 4 14 2 31 -4 16 -6 33 -7 36
-4 7 6 -125 146 -137 146 -4 0 -12 -40 -18 -89z m375 -667 c45 -22 84 -74 90
-124 l6 -40 -77 0 c-44 0 -76 4 -76 10 0 6 8 11 18 11 16 1 16 2 0 6 -10 2
-19 12 -19 21 -1 15 -2 15 -6 0 -2 -10 -14 -19 -26 -19 -22 -2 -22 -2 1 -6 49
-10 18 -23 -54 -23 l-77 0 6 40 c10 73 81 139 150 140 16 0 45 -7 64 -16z"/>
<path d="M1080 3005 c0 -51 3 -65 15 -65 12 0 15 14 15 65 0 51 -3 65 -15 65
-12 0 -15 -14 -15 -65z"/>
<path d="M1080 2755 c0 -51 3 -65 15 -65 12 0 15 14 15 65 0 51 -3 65 -15 65
-12 0 -15 -14 -15 -65z"/>
<path d="M1080 2510 c0 -56 3 -70 15 -70 12 0 15 14 15 70 0 56 -3 70 -15 70
-12 0 -15 -14 -15 -70z"/>
<path d="M293 2283 c14 -4 17 -16 17 -63 0 -47 -3 -59 -17 -63 -10 -3 5 -5 32
-5 28 0 42 2 33 5 -22 6 -25 53 -3 53 8 0 15 -4 15 -10 0 -5 5 -10 10 -10 6 0
10 14 10 30 0 17 -4 30 -10 30 -5 0 -10 -4 -10 -10 0 -5 -7 -10 -15 -10 -9 0
-15 10 -15 26 0 24 3 25 28 19 15 -3 31 -13 35 -21 13 -23 25 -16 19 11 -4 24
-7 25 -76 24 -39 -1 -63 -3 -53 -6z"/>
<path d="M1168 1984 c-12 -11 33 -124 49 -124 8 0 13 6 11 13 -3 6 -13 36 -22
65 -17 49 -25 60 -38 46z"/>
<path d="M1080 1760 c0 -56 3 -70 15 -70 12 0 15 14 15 70 0 56 -3 70 -15 70
-12 0 -15 -14 -15 -70z"/>
<path d="M1230 1782 c0 -15 32 -107 41 -116 19 -21 21 8 4 64 -10 34 -24 60
-32 60 -7 0 -13 -4 -13 -8z"/>
<path d="M1303 1594 c-8 -4 -6 -23 9 -67 24 -72 25 -74 38 -61 7 7 3 31 -11
72 -11 34 -22 62 -22 61 -1 0 -7 -3 -14 -5z"/>
<path d="M1080 1510 c0 -56 3 -70 15 -70 12 0 15 14 15 70 0 56 -3 70 -15 70
-12 0 -15 -14 -15 -70z"/>
<path d="M443 1423 c14 -4 17 -16 17 -63 0 -47 -3 -59 -17 -63 -10 -3 5 -5 32
-5 28 0 42 2 33 5 -22 6 -25 53 -3 53 8 0 15 -4 15 -10 0 -5 5 -10 10 -10 6 0
10 14 10 30 0 17 -4 30 -10 30 -5 0 -10 -4 -10 -10 0 -5 -7 -10 -15 -10 -9 0
-15 10 -15 26 0 24 3 25 28 19 15 -3 31 -13 35 -21 13 -23 25 -16 19 11 -4 24
-7 25 -76 24 -39 -1 -63 -3 -53 -6z"/>
<path d="M1361 1388 c2 -34 38 -113 52 -116 14 -3 13 5 -6 62 -11 36 -27 66
-34 66 -7 0 -13 -6 -12 -12z"/>
<path d="M1080 1265 c0 -51 3 -65 15 -65 12 0 15 14 15 65 0 51 -3 65 -15 65
-12 0 -15 -14 -15 -65z"/>
<path d="M618 1293 c18 -2 45 -2 60 0 15 2 0 4 -33 4 -33 0 -45 -2 -27 -4z"/>
<path d="M735 1188 c-39 -108 -41 -118 -22 -118 12 0 47 89 47 118 0 16 -19
15 -25 0z"/>
<path d="M1430 1189 c0 -30 35 -119 47 -119 17 0 16 13 -6 74 -16 46 -41 74
-41 45z"/>
<path d="M1080 1015 c0 -51 3 -65 15 -65 12 0 15 14 15 65 0 51 -3 65 -15 65
-12 0 -15 -14 -15 -65z"/>
<path d="M652 941 c-11 -33 -18 -62 -14 -65 13 -14 21 -3 38 47 9 28 19 58 22
65 2 6 -3 12 -11 12 -10 0 -23 -22 -35 -59z"/>
<path d="M1492 988 c3 -7 13 -37 22 -65 17 -50 25 -61 38 -47 12 11 -33 124
-49 124 -8 0 -13 -6 -11 -12z"/>
<path d="M1080 765 c0 -51 3 -65 15 -65 12 0 15 14 15 65 0 51 -3 65 -15 65
-12 0 -15 -14 -15 -65z"/>
<path d="M605 798 c-3 -7 -11 -31 -18 -53 l-14 -40 -74 -5 c-90 -7 -149 -36
-195 -97 -57 -74 -65 -185 -19 -272 34 -66 143 -131 220 -131 48 0 128 33 167
68 43 38 77 101 78 140 l0 22 281 0 280 0 -20 -26 c-12 -15 -21 -31 -21 -35 0
-5 36 9 80 31 56 28 82 37 84 28 2 -7 9 -33 16 -58 18 -64 88 -133 159 -154
68 -20 84 -20 150 0 124 36 197 162 171 291 -24 113 -111 183 -239 193 l-74 5
-17 49 c-9 28 -22 52 -28 54 -16 5 -15 -16 5 -73 11 -34 13 -50 5 -53 -59 -19
-127 -103 -138 -169 -3 -24 -8 -43 -10 -43 -2 0 -37 17 -78 37 -75 37 -103 39
-74 6 36 -42 34 -43 -71 -43 l-101 0 0 55 c0 42 -3 55 -15 55 -12 0 -15 -13
-15 -55 l0 -55 -164 0 -164 0 -6 43 c-11 66 -79 150 -138 169 -8 3 -6 19 5 53
10 27 17 55 17 62 0 17 -19 17 -25 1z m-32 -129 c53 -14 132 -93 146 -144 15
-56 14 -108 -5 -155 l-16 -40 -193 0 -193 0 -16 40 c-70 175 92 351 277 299z
m1180 0 c49 -13 115 -73 138 -124 23 -50 24 -122 3 -175 l-16 -40 -193 0 -193
0 -16 40 c-36 90 -11 189 65 253 63 54 130 69 212 46z"/>
<path d="M552 488 c-15 -15 -16 -54 -2 -63 6 -3 7 1 4 10 -4 8 1 26 10 40 17
26 9 34 -12 13z"/>
<path d="M593 463 c-9 -21 -16 -44 -14 -52 1 -8 -3 -18 -11 -22 -9 -6 -6 -9
10 -9 13 0 21 4 18 8 -3 5 1 32 9 60 16 61 11 67 -12 15z"/>
<path d="M428 463 c18 -2 45 -2 60 0 15 2 0 4 -33 4 -33 0 -45 -2 -27 -4z"/>
<path d="M1632 503 c-2 -28 -6 -32 -34 -36 l-33 -4 32 -1 c28 -2 32 -6 36 -34
l4 -33 1 32 c2 26 7 32 30 36 l27 4 -27 2 c-22 1 -27 6 -31 34 l-4 32 -1 -32z"/>
<path d="M1732 488 c-15 -15 -16 -54 -2 -63 6 -3 7 1 4 10 -4 8 1 26 10 40 17
26 9 34 -12 13z"/>
<path d="M1773 463 c-9 -21 -16 -44 -14 -52 1 -8 -3 -18 -11 -22 -9 -6 -6 -9
10 -9 13 0 21 4 18 8 -3 5 1 32 9 60 16 61 11 67 -12 15z"/>
<path d="M1380 701 c-11 -4 -15 -23 -15 -74 l0 -67 30 0 c18 0 25 3 18 8 -7 4
-13 36 -15 73 -2 54 -6 65 -18 60z"/>
</g>
</svg>
